<svg xmlns="http://www.w3.org/2000/svg" viewBox="0 0 135 135">
<!-- SVG created with Arrow, by QuiverAI (https://quiver.ai) -->
  <style type="text/css">.cls-0 {fill:#FFFFFF;}
.cls-1 {fill:#EDEDED;}
.cls-2 {fill:#049648;}
.cls-3 {fill:#FDC713;}
.cls-4 {fill:#007AC9;}
.cls-5 {fill:none;stroke:#049648;stroke-width:3.8707;stroke-miterlimit:10;}</style>
  <path class="cls-1" d="m134 135h-133l-1-134s134-4.2 134 0v134z"/>
  <path d="m109.3 130h-83.6c-11.4 0-20.7-8.2-20.7-20.5v-84c0-11.3 9.3-20.5 20.7-20.5h83.6c11.5 0 20.7 9.2 20.7 20.5v84c0 12.3-9.2 20.5-20.7 20.5z" fill="#fff"/>
  <path class="cls-2" d="m115.6 91.6-7.1-51c-0.6-4.1-2.5-8.3-5.4-11-4.2-4.3-15.5-9.6-35.8-9.6s-33.6 4.6-37.7 12c-1.4 2-2.5 4.7-2.9 7.1l-7.3 52.9c0 1 0.8 2 1.8 2h0.8c1.4 6.7 5 13.3 8 14.9 0.6 0.3 1.4 0.4 1.9 0.4h70.6c0.6 0 1.4-0.1 2-0.4 3.1-1.9 6.1-7.5 7.6-14.9h1.7c1.2 0 2-1 1.8-2.4z"/>
  <path class="cls-0" d="m60.6 25.5c-5.6 0.4-14 1.9-20.6 5.1-2.9 1.4-6.6 4-6.9 8.1l-3.3 24.4c0.6 4.2 2.6 10.9 20.1 16l33.6 0.5c9.4-2.1 16.3-6.3 19.5-11.6 0.9-1.6 0.9-3.3 1.1-4.9l-3.1-26c-1.6-5.5-11.1-10.4-23.2-11.4-4.3-0.3-11.4-0.6-17.2-0.2z"/>
  <path class="cls-3" d="m104.1 63.1c-0.6 6.5-6.1 12.7-20.3 16.3l-17.4 1.8-16.5-1.8c-12.5-3.2-18.9-8.7-20.1-16.1l-3.2 25.6c-0.4 3.3 2 12 5.8 15.2h13.1v-6c0-0.8 0.7-1.7 1.6-1.7h39.8c0.9 0 1.7 0.7 1.7 1.7v6.1h12.8c1 0.2 5.2-4.6 5.6-13.2l-2.9-27.9z"/>
  <path class="cls-4" d="m97.9 38c-0.4-1.3-1.5-2-2.3-2.4-3-1.6-9.5-3.9-19.7-4.4-3.3-0.2-7.5-0.4-10.9-0.2-13.9 0.4-21.6 2.6-26.5 5.1-1.4 0.9-1.6 2-1.9 3.9l-3.8 29.6c4.8 6.2 12.6 8.3 17.1 9.8l16.5 1.8 17.4-1.8c4-0.8 12.8-3.5 17.2-9.4 0-1.4-3.1-32-3.1-32z"/>
  <path class="cls-0" d="m83.8 42.5 0.1 29.7c6-1.1 11-3.2 13.7-4.9l-2.6-23.5-11.2-1.3zm-45 1.5-2.8 23.3c3.6 1.8 9 3.9 13.9 4.9v-29.7l-11.1 1.5z"/>
  <path class="cls-3" d="m54 82.7v13.5h25.7l0.1-15.8c-3.4 0.4-7.4 0.7-13.3 0.8-4.6 0-9-0.4-12.5-0.8v2.3z"/>
  <path class="cls-2" d="m33.9 74.4c3.5 2.7 7.3 4.5 13.1 6.4 0.7 0.3 0.6 0.3 0.6 0.6v6.5c-8.2-1.2-14.6-3.5-14.5-10 0.1-1.7 0.5-3.5 0.8-3.5zm66.3 0.2c-3.6 2.7-7.6 4.5-13.6 6.3-0.4 0.2-0.4 0.3-0.4 0.6l0.1 6.5c6.2-0.5 15.6-2.6 14.7-11.1-0.2-1-0.4-2.8-0.8-2.3z"/>
  <path class="cls-2" d="m35.9 44.2c3.6-0.2 9.6-1.5 14.1-1.7v-9.8c-6.1 1.1-12 3.2-12.5 4.7-0.5 0.6-1 3.5-1.6 6.8z"/>
  <path class="cls-5" d="m51.7 97.5 0.3-56.7"/>
  <path class="cls-2" d="m98 40c-0.2-1-0.4-2.6-1.6-3.6-2-1.3-7.3-3.3-12.8-3.9l-0.2 10c3.7 0 11.8 1.1 14.6 1.7v-4.2z"/>
  <path class="cls-5" d="m81.7 97-0.1-56.5"/>
</svg>